<?xml version="1.0" ?><!DOCTYPE svg  PUBLIC '-//W3C//DTD SVG 1.1//EN'  'http://www.w3.org/Graphics/SVG/1.1/DTD/svg11.dtd'><svg enable-background="new 0 0 70 70" height="70px" id="Icons" version="1.1" viewBox="0 0 70 70" width="70px" xml:space="preserve" xmlns="http://www.w3.org/2000/svg" xmlns:xlink="http://www.w3.org/1999/xlink"><path d="M39.508,16c0.606,0,1.214,0.044,1.82,0.13l-6.775,6.775l2.16,10.381l10.381,2.16l6.767-6.767  c0.496,3.538-0.481,7.004-2.861,9.384c-1.931,1.931-4.618,2.994-7.567,2.994c-1.353,0-2.723-0.219-4.071-0.65l-2.323-0.744  L24.22,52.484c-0.895,0.895-2.086,1.388-3.352,1.388c-1.266,0-2.457-0.493-3.352-1.388s-1.388-2.086-1.388-3.352  c0-1.266,0.493-2.457,1.388-3.352L30.337,32.96l-0.744-2.323c-1.39-4.342-0.492-8.801,2.344-11.637  C33.871,17.065,36.56,16,39.508,16 M39.508,12c-3.875,0-7.602,1.373-10.4,4.171c-4.064,4.064-5.115,10.094-3.325,15.686  L14.688,42.952c-3.413,3.413-3.413,8.947,0,12.361c1.707,1.707,3.943,2.56,6.18,2.56c2.237,0,4.474-0.853,6.18-2.56l11.096-11.096  c1.745,0.559,3.533,0.841,5.29,0.841c3.874,0,7.599-1.37,10.395-4.166c5.005-5.005,5.452-12.989,1.628-19.465l-9.664,9.664  l-5.699-1.186l-1.186-5.699l9.664-9.664C45.717,12.856,42.566,12,39.508,12L39.508,12z"/></svg>